<?xml version="1.0" ?><!DOCTYPE svg  PUBLIC '-//W3C//DTD SVG 1.1//EN'  'http://www.w3.org/Graphics/SVG/1.1/DTD/svg11.dtd'><svg enable-background="new 0 0 500 500" height="500px" id="Layer_1" version="1.1" viewBox="0 0 500 500" width="500px" xml:space="preserve" xmlns="http://www.w3.org/2000/svg" xmlns:xlink="http://www.w3.org/1999/xlink"><path clip-rule="evenodd" d="M186.401,59.074c-35.524-35.525-92.396-36.163-127.834-0.628  c-35.527,35.427-35.527,93.027,0,128.464c17.717,17.71,40.706,26.619,63.872,26.619H51.938c-11.081,0-19.989,8.908-19.989,19.989  v41.789c0,11.085,8.909,19.992,19.989,19.992h16.353v136.283c0,20.078,16.264,36.341,36.341,36.341H395.37  c20.079,0,36.34-16.263,36.34-36.341V295.298h16.354c11.08,0,19.987-8.907,19.987-19.992v-41.789  c0-11.081-8.907-19.989-19.987-19.989h-70.599c23.262,0,46.252-8.909,63.962-26.619c35.534-35.437,35.534-93.037,0-128.464  c-35.431-35.535-92.302-34.897-127.828,0.628L250,122.673L186.401,59.074z M297.062,138.484l47.972-47.973  c17.81-17.72,46.519-17.72,64.329,0c17.717,17.807,17.717,46.519,0,64.327c-8.903,8.809-20.542,13.264-32.164,13.264H311.15  c-10.001,0-18.174-8.18-18.174-18.172C292.977,145.563,294.521,141.661,297.062,138.484z M154.967,90.511l46.519,46.519l0.088,0.088  c3.265,3.362,5.271,7.815,5.271,12.812c0,9.992-8.181,18.172-18.17,18.172h-65.871c-11.633,0-23.264-4.455-32.163-13.264  c-17.719-17.808-17.719-46.52,0-64.327C108.447,72.791,137.159,72.791,154.967,90.511z M204.573,213.528h90.853v188.976  c0,11.085-8.906,19.99-19.986,19.99h-50.877c-11.081,0-19.989-8.905-19.989-19.99V213.528z" fill="#010101" fill-rule="evenodd"/></svg>